<svg width="1200" height="420" viewBox="0 0 1200 420" fill="none" xmlns="http://www.w3.org/2000/svg">
<rect width="1200" height="420" fill="#D4D4D4"/>
<path d="M473.102 205V198.55H485.152V235H477.952V205H473.102ZM494.267 227.1C497.467 224.433 500.017 222.217 501.917 220.45C503.817 218.65 505.4 216.783 506.667 214.85C507.934 212.917 508.567 211.017 508.567 209.15C508.567 207.45 508.167 206.117 507.367 205.15C506.567 204.183 505.334 203.7 503.667 203.7C502 203.7 500.717 204.267 499.817 205.4C498.917 206.5 498.45 208.017 498.417 209.95H491.617C491.75 205.95 492.934 202.917 495.167 200.85C497.434 198.783 500.3 197.75 503.767 197.75C507.567 197.75 510.484 198.767 512.517 200.8C514.55 202.8 515.567 205.45 515.567 208.75C515.567 211.35 514.867 213.833 513.467 216.2C512.067 218.567 510.467 220.633 508.667 222.4C506.867 224.133 504.517 226.233 501.617 228.7H516.367V234.5H491.667V229.3L494.267 227.1ZM520.778 216.3C520.778 210.533 521.811 206.017 523.878 202.75C525.978 199.483 529.445 197.85 534.278 197.85C539.111 197.85 542.561 199.483 544.628 202.75C546.728 206.017 547.778 210.533 547.778 216.3C547.778 222.1 546.728 226.65 544.628 229.95C542.561 233.25 539.111 234.9 534.278 234.9C529.445 234.9 525.978 233.25 523.878 229.95C521.811 226.65 520.778 222.1 520.778 216.3ZM540.878 216.3C540.878 213.833 540.711 211.767 540.378 210.1C540.078 208.4 539.445 207.017 538.478 205.95C537.545 204.883 536.145 204.35 534.278 204.35C532.411 204.35 530.995 204.883 530.028 205.95C529.095 207.017 528.461 208.4 528.128 210.1C527.828 211.767 527.678 213.833 527.678 216.3C527.678 218.833 527.828 220.967 528.128 222.7C528.428 224.4 529.061 225.783 530.028 226.85C530.995 227.883 532.411 228.4 534.278 228.4C536.145 228.4 537.561 227.883 538.528 226.85C539.495 225.783 540.128 224.4 540.428 222.7C540.728 220.967 540.878 218.833 540.878 216.3ZM553.102 216.3C553.102 210.533 554.135 206.017 556.202 202.75C558.302 199.483 561.769 197.85 566.602 197.85C571.435 197.85 574.885 199.483 576.952 202.75C579.052 206.017 580.102 210.533 580.102 216.3C580.102 222.1 579.052 226.65 576.952 229.95C574.885 233.25 571.435 234.9 566.602 234.9C561.769 234.9 558.302 233.25 556.202 229.95C554.135 226.65 553.102 222.1 553.102 216.3ZM573.202 216.3C573.202 213.833 573.035 211.767 572.702 210.1C572.402 208.4 571.769 207.017 570.802 205.95C569.869 204.883 568.469 204.35 566.602 204.35C564.735 204.35 563.319 204.883 562.352 205.95C561.419 207.017 560.785 208.4 560.452 210.1C560.152 211.767 560.002 213.833 560.002 216.3C560.002 218.833 560.152 220.967 560.452 222.7C560.752 224.4 561.385 225.783 562.352 226.85C563.319 227.883 564.735 228.4 566.602 228.4C568.469 228.4 569.885 227.883 570.852 226.85C571.819 225.783 572.452 224.4 572.752 222.7C573.052 220.967 573.202 218.833 573.202 216.3ZM613.44 235L607.74 226.4L602.69 235H595.19L604.24 221.1L595.09 207.3H602.99L608.64 215.85L613.74 207.3H621.24L612.14 221.1L621.34 235H613.44ZM635.956 227.9V222.4L652.306 199H660.456V221.8H664.856V227.9H660.456V235H653.456V227.9H635.956ZM653.906 206.5L643.656 221.8H653.906V206.5ZM671.513 227.1C674.713 224.433 677.263 222.217 679.163 220.45C681.063 218.65 682.646 216.783 683.913 214.85C685.18 212.917 685.813 211.017 685.813 209.15C685.813 207.45 685.413 206.117 684.613 205.15C683.813 204.183 682.58 203.7 680.913 203.7C679.246 203.7 677.963 204.267 677.063 205.4C676.163 206.5 675.696 208.017 675.663 209.95H668.863C668.996 205.95 670.18 202.917 672.413 200.85C674.68 198.783 677.546 197.75 681.013 197.75C684.813 197.75 687.73 198.767 689.763 200.8C691.796 202.8 692.813 205.45 692.813 208.75C692.813 211.35 692.113 213.833 690.713 216.2C689.313 218.567 687.713 220.633 685.913 222.4C684.113 224.133 681.763 226.233 678.863 228.7H693.613V234.5H668.913V229.3L671.513 227.1ZM698.024 216.3C698.024 210.533 699.057 206.017 701.124 202.75C703.224 199.483 706.691 197.85 711.524 197.85C716.357 197.85 719.807 199.483 721.874 202.75C723.974 206.017 725.024 210.533 725.024 216.3C725.024 222.1 723.974 226.65 721.874 229.95C719.807 233.25 716.357 234.9 711.524 234.9C706.691 234.9 703.224 233.25 701.124 229.95C699.057 226.65 698.024 222.1 698.024 216.3ZM718.124 216.3C718.124 213.833 717.957 211.767 717.624 210.1C717.324 208.4 716.691 207.017 715.724 205.95C714.791 204.883 713.391 204.35 711.524 204.35C709.657 204.35 708.241 204.883 707.274 205.95C706.341 207.017 705.707 208.4 705.374 210.1C705.074 211.767 704.924 213.833 704.924 216.3C704.924 218.833 705.074 220.967 705.374 222.7C705.674 224.4 706.307 225.783 707.274 226.85C708.241 227.883 709.657 228.4 711.524 228.4C713.391 228.4 714.807 227.883 715.774 226.85C716.741 225.783 717.374 224.4 717.674 222.7C717.974 220.967 718.124 218.833 718.124 216.3Z" fill="#BDBDBD"/>
</svg>
