<svg width="1200" height="610" viewBox="0 0 1200 610" fill="none" xmlns="http://www.w3.org/2000/svg">
<rect width="1200" height="610" fill="#D4D4D4"/>
<path d="M478.937 293V286.55H490.987V323H483.787V293H478.937ZM500.102 315.1C503.302 312.433 505.852 310.217 507.752 308.45C509.652 306.65 511.235 304.783 512.502 302.85C513.769 300.917 514.402 299.017 514.402 297.15C514.402 295.45 514.002 294.117 513.202 293.15C512.402 292.183 511.169 291.7 509.502 291.7C507.835 291.7 506.552 292.267 505.652 293.4C504.752 294.5 504.285 296.017 504.252 297.95H497.452C497.585 293.95 498.769 290.917 501.002 288.85C503.269 286.783 506.135 285.75 509.602 285.75C513.402 285.75 516.319 286.767 518.352 288.8C520.385 290.8 521.402 293.45 521.402 296.75C521.402 299.35 520.702 301.833 519.302 304.2C517.902 306.567 516.302 308.633 514.502 310.4C512.702 312.133 510.352 314.233 507.452 316.7H522.202V322.5H497.502V317.3L500.102 315.1ZM526.613 304.3C526.613 298.533 527.646 294.017 529.713 290.75C531.813 287.483 535.28 285.85 540.113 285.85C544.946 285.85 548.396 287.483 550.463 290.75C552.563 294.017 553.613 298.533 553.613 304.3C553.613 310.1 552.563 314.65 550.463 317.95C548.396 321.25 544.946 322.9 540.113 322.9C535.28 322.9 531.813 321.25 529.713 317.95C527.646 314.65 526.613 310.1 526.613 304.3ZM546.713 304.3C546.713 301.833 546.546 299.767 546.213 298.1C545.913 296.4 545.28 295.017 544.313 293.95C543.38 292.883 541.98 292.35 540.113 292.35C538.246 292.35 536.83 292.883 535.863 293.95C534.93 295.017 534.296 296.4 533.963 298.1C533.663 299.767 533.513 301.833 533.513 304.3C533.513 306.833 533.663 308.967 533.963 310.7C534.263 312.4 534.896 313.783 535.863 314.85C536.83 315.883 538.246 316.4 540.113 316.4C541.98 316.4 543.396 315.883 544.363 314.85C545.33 313.783 545.963 312.4 546.263 310.7C546.563 308.967 546.713 306.833 546.713 304.3ZM558.937 304.3C558.937 298.533 559.97 294.017 562.037 290.75C564.137 287.483 567.604 285.85 572.437 285.85C577.27 285.85 580.72 287.483 582.787 290.75C584.887 294.017 585.937 298.533 585.937 304.3C585.937 310.1 584.887 314.65 582.787 317.95C580.72 321.25 577.27 322.9 572.437 322.9C567.604 322.9 564.137 321.25 562.037 317.95C559.97 314.65 558.937 310.1 558.937 304.3ZM579.037 304.3C579.037 301.833 578.87 299.767 578.537 298.1C578.237 296.4 577.604 295.017 576.637 293.95C575.704 292.883 574.304 292.35 572.437 292.35C570.57 292.35 569.154 292.883 568.187 293.95C567.254 295.017 566.62 296.4 566.287 298.1C565.987 299.767 565.837 301.833 565.837 304.3C565.837 306.833 565.987 308.967 566.287 310.7C566.587 312.4 567.22 313.783 568.187 314.85C569.154 315.883 570.57 316.4 572.437 316.4C574.304 316.4 575.72 315.883 576.687 314.85C577.654 313.783 578.287 312.4 578.587 310.7C578.887 308.967 579.037 306.833 579.037 304.3ZM619.275 323L613.575 314.4L608.525 323H601.025L610.075 309.1L600.925 295.3H608.825L614.475 303.85L619.575 295.3H627.075L617.975 309.1L627.175 323H619.275ZM660.991 295.65C660.658 294.25 660.075 293.2 659.241 292.5C658.441 291.8 657.275 291.45 655.741 291.45C653.441 291.45 651.741 292.383 650.641 294.25C649.575 296.083 649.025 299.083 648.991 303.25C649.791 301.917 650.958 300.883 652.491 300.15C654.025 299.383 655.691 299 657.491 299C659.658 299 661.575 299.467 663.241 300.4C664.908 301.333 666.208 302.7 667.141 304.5C668.075 306.267 668.541 308.4 668.541 310.9C668.541 313.267 668.058 315.383 667.091 317.25C666.158 319.083 664.775 320.517 662.941 321.55C661.108 322.583 658.925 323.1 656.391 323.1C652.925 323.1 650.191 322.333 648.191 320.8C646.225 319.267 644.841 317.133 644.041 314.4C643.275 311.633 642.891 308.233 642.891 304.2C642.891 298.1 643.941 293.5 646.041 290.4C648.141 287.267 651.458 285.7 655.991 285.7C659.491 285.7 662.208 286.65 664.141 288.55C666.075 290.45 667.191 292.817 667.491 295.65H660.991ZM655.891 304.75C654.125 304.75 652.641 305.267 651.441 306.3C650.241 307.333 649.641 308.833 649.641 310.8C649.641 312.767 650.191 314.317 651.291 315.45C652.425 316.583 654.008 317.15 656.041 317.15C657.841 317.15 659.258 316.6 660.291 315.5C661.358 314.4 661.891 312.917 661.891 311.05C661.891 309.117 661.375 307.583 660.341 306.45C659.341 305.317 657.858 304.75 655.891 304.75ZM673.224 293V286.55H685.274V323H678.074V293H673.224ZM692.189 304.3C692.189 298.533 693.222 294.017 695.289 290.75C697.389 287.483 700.856 285.85 705.689 285.85C710.522 285.85 713.972 287.483 716.039 290.75C718.139 294.017 719.189 298.533 719.189 304.3C719.189 310.1 718.139 314.65 716.039 317.95C713.972 321.25 710.522 322.9 705.689 322.9C700.856 322.9 697.389 321.25 695.289 317.95C693.222 314.65 692.189 310.1 692.189 304.3ZM712.289 304.3C712.289 301.833 712.122 299.767 711.789 298.1C711.489 296.4 710.856 295.017 709.889 293.95C708.956 292.883 707.556 292.35 705.689 292.35C703.822 292.35 702.406 292.883 701.439 293.95C700.506 295.017 699.872 296.4 699.539 298.1C699.239 299.767 699.089 301.833 699.089 304.3C699.089 306.833 699.239 308.967 699.539 310.7C699.839 312.4 700.472 313.783 701.439 314.85C702.406 315.883 703.822 316.4 705.689 316.4C707.556 316.4 708.972 315.883 709.939 314.85C710.906 313.783 711.539 312.4 711.839 310.7C712.139 308.967 712.289 306.833 712.289 304.3Z" fill="#BDBDBD"/>
</svg>
