<svg width="772" height="800" viewBox="0 0 772 800" fill="none" xmlns="http://www.w3.org/2000/svg">
<path d="M130.2 799C125.1 798.5 120.6 797.9 120.3 797.6C120 797.3 123 749.8 126.9 691.9C130.9 634.1 134 586.6 133.8 586.4C133.6 586.3 123.6 593.3 111.5 602.1C99.4002 611 87.7002 619.4 85.4002 621L81.3002 623.9L73.6002 613.3C67.3002 604.7 66.1002 602.5 67.2002 601.5C72.3002 596.9 119.2 564 119.9 564.5C120.5 564.8 123.7 568.9 127.1 573.6C130.5 578.3 133.6 581.8 134 581.3C134.4 580.9 135.3 571.5 135.9 560.5L137.1 540.5L131.9 531.5C85.8002 451.9 80.5002 351.6 118.2 267.4C142 214.4 182.6 167.9 232.1 137.1C313.4 86.6 416 79.3 503.5 118C536.5 132.5 564.1 151.3 590.4 177C662.3 247.2 692.9 346.4 672.9 444.9C667.1 473.7 655.5 504.3 641 529.7L634.8 540.3L636.1 560.4C636.7 571.5 637.6 580.9 638 581.3C638.4 581.8 641.7 578 645.3 573.1C649 568.1 652.3 564 652.7 564C653.4 564 703.4 600.1 705.3 601.9C705.8 602.4 702.7 607.5 698.4 613.3L690.7 623.9L686.6 621C684.3 619.4 672.6 611 660.5 602.1C648.4 593.3 638.4 586.3 638.2 586.4C638 586.6 641.1 634.1 645.1 691.9C649 749.8 652 797.3 651.7 797.6C650.9 798.4 626.9 800.2 626.2 799.5C625.9 799.3 618.8 698.1 610.4 574.8C602 451.4 594.9 348 594.5 345C591.1 315.3 576.4 286.3 554.1 264.7C542.5 253.6 532.4 246.5 518.7 240C501.5 231.8 489.5 228.5 471 227C437.3 224.3 412.4 236.8 393.1 266.3C389.6 271.6 386.4 276 386 276C385.6 276 382.4 271.6 378.9 266.3C369.6 252.1 358.8 241.6 347.3 235.7C333.9 228.8 325.4 226.8 309.5 226.8C287.9 226.9 269.8 231.4 250.2 241.5C236.1 248.8 225.7 256.6 214.7 267.9C192.5 290.8 180.1 318 177.1 350.5C176.5 356.6 169.5 458.3 161.5 576.5C153.5 694.8 146.7 793.4 146.4 795.8C145.8 800.6 147.1 800.3 130.2 799ZM145.5 419.5C147.9 382.7 150.5 348 151.1 342.5C158.6 274.3 210.8 217.5 279.5 203C293.7 200 316.6 199.3 328.8 201.4C346.7 204.5 364.1 212.7 378.3 224.6L386 231.1L393.7 224.6C407.9 212.7 425.3 204.5 443.2 201.4C450.3 200.2 456 199.9 467.5 200.3C491.6 201.2 510.6 206.1 532.5 217C581.3 241.3 614.8 289 620.9 342.5C621.7 349.9 630.5 474.4 631.1 486.7C631.3 492.6 642.7 459 646.5 440.9C653.7 406.5 653.9 366.6 646.9 332.7C630.3 252.2 577.3 183.8 503.5 147.5C478.4 135.1 454.1 127.4 425.9 122.8C407.5 119.8 366.7 119.6 348.5 122.4C271.8 134.2 206 176 163.5 240C149.8 260.7 136.6 289.5 129.5 314.4C116.3 360.7 116.8 414.9 130.7 460.9C134.7 474.3 140.2 488.9 140.6 487.5C140.8 486.9 143 456.4 145.5 419.5Z" fill="#11111F"/>
<path d="M240 734.1V669.3L232.4 659.9C206 627.2 190.9 590.3 187 549.5C185.7 535 185.6 454 187 454C191.6 454 230.8 449.5 239.5 448C278.2 441.2 314.4 422.3 342.8 394.1C355.6 381.3 366.5 366.7 377 348.5C381.5 340.5 385.6 334 386 334C386.4 334 390.5 340.5 395 348.5C416.4 385.8 443.5 412.2 478.9 430C497.5 439.3 515.5 445.3 534.5 448.4C542.4 449.6 581.6 454 585.2 454C586.4 454 586.2 536.8 585 549.5C581.1 590.5 565.9 627.3 539.2 660.4L532 669.2V734.1V799H519H506V746C506 716.9 505.8 693 505.5 693C505.2 693 501 695.6 496.2 698.8C491.4 702 485.2 705.9 482.4 707.5C477.8 710.1 477.1 710.9 475.5 715.9C470.2 733 458.8 747.8 443.4 757.9C439.5 760.4 425 768.1 411.2 775L386 787.5L362.2 775.7C349.2 769.2 335.4 762 331.7 759.8C315.1 750.1 302.2 733.9 296.5 715.9C295 711 294.2 710 290 707.7C287.4 706.2 281.2 702.3 276.1 699C271.1 695.7 266.7 693 266.5 693C266.2 693 266 716.9 266 746V799H253H240V734.1ZM409.2 745.9C428.8 736 432 734.1 437.5 728.5C445.1 720.9 449.6 712 451.8 700.4L453.4 692.2L459.7 689.1L466 686V674.6C466 660.8 464.8 654.4 460.8 646.7C456.9 639.4 450.6 633.7 442.2 629.7L435.5 626.5H386H336.5L329.8 629.7C318.2 635.2 310.7 644.1 307.4 656.4C306.6 659.4 306 666.6 306 673.8V686L312.3 689.1L318.6 692.2L320.2 700.5C322.3 711.8 327.1 721.1 334.6 728.6C340 734 343.4 736.1 362.6 745.8C374.7 751.9 385.1 756.9 385.8 757C386.5 757 397 752 409.2 745.9ZM280 659.4C281.8 643.6 287.7 630.8 298 620C308.1 609.5 320.2 603.1 335 600.4C345.7 598.5 426.3 598.5 437 600.4C467.3 605.9 488.8 629 491.9 659.3C492.4 663.6 493 667.3 493.2 667.5C494 668.4 507.4 656.1 514.8 647.8C538.3 621.3 553.8 587 557.9 552.5C559.5 539.2 559.4 478 557.7 478C553.5 478 529.3 474.7 520.7 472.9C497 468 466.8 455.6 446.5 442.3C427.1 429.6 404.6 408.9 392 392.3C389.2 388.6 386.5 385.5 386.1 385.5C385.7 385.5 381.7 390 377.3 395.5C351 428.1 314.4 453.4 274.7 466.5C258.9 471.7 245.7 474.5 227 476.7L213 478.3V510.9C213 528.8 213.5 547.6 214.1 552.5C219.1 594.1 240.1 634.4 271.1 661.7C275.1 665.2 278.5 667.8 278.7 667.6C278.9 667.4 279.5 663.7 280 659.4Z" fill="#11111F"/>
<path d="M333 666V653H386H439V666V679H386H333V666Z" fill="#11111F"/>
<path d="M22.6998 517.3C20.8998 514.1 14.9998 493.7 15.5998 493C16.0998 492.6 30.2998 487.8 47.2998 482.3L77.9998 472.3L81.9998 484.8C84.1998 491.7 85.8998 497.4 85.7998 497.6C85.5998 497.8 37.6998 513.5 25.0998 517.5C23.9998 517.8 22.9998 517.7 22.6998 517.3Z" fill="#11111F"/>
<path d="M718 508.1C701.8 502.8 688 498.2 687.3 498C685.8 497.4 692.9 473.9 694.7 473.3C696 472.8 755 491.8 756.4 493C757.4 493.9 749.8 517.3 748.4 517.6C747.9 517.7 734.2 513.5 718 508.1Z" fill="#11111F"/>
<path d="M0 386.5V373H33H66V386.5V400H33H0V386.5Z" fill="#11111F"/>
<path d="M706 386.5V373H739H772V386.5V400H739H706V386.5Z" fill="#11111F"/>
<path d="M46.0001 289.8C29.2001 284.3 15.3001 279.6 15.2001 279.5C14.8001 279.2 20.0001 261.7 22.0001 256.5L22.9001 254.2L53.7001 264.2C70.6001 269.7 84.8001 274.5 85.2001 274.9C86.1001 275.7 78.2001 300 77.2001 299.9C76.8001 299.9 62.8001 295.3 46.0001 289.8Z" fill="#11111F"/>
<path d="M690.1 287.9C687.9 281.1 686.3 275.3 686.8 274.9C687.2 274.5 701.4 269.7 718.3 264.2C748.8 254.3 749.1 254.2 750 256.4C752.1 262.1 757.2 279.1 756.9 279.4C756.7 279.6 743 284.2 726.5 289.5C710 294.9 696 299.5 695.4 299.7C694.7 300 692.6 295.3 690.1 287.9Z" fill="#11111F"/>
<path d="M92.9001 189.8C78.4001 179.3 66.3001 170.5 66.1001 170.4C65.7001 170 79.8001 150.2 81.1001 149.4C81.8001 149 129.8 182.9 134.3 187C135 187.6 124.2 203.6 120.1 208.3C119.7 208.7 107.5 200.4 92.9001 189.8Z" fill="#11111F"/>
<path d="M644.6 198.4C640.3 192.5 637.2 187.4 637.7 187C639.7 185.2 689.9 149 690.4 149C691.1 149 705 167.6 705.5 169.3C705.8 170.2 673.3 194.6 654.2 207.7C652.6 208.9 651.6 207.9 644.6 198.4Z" fill="#11111F"/>
<path d="M181.8 127.8C178.9 123.8 170.1 111.8 162.4 101.1L148.2 81.7L153.9 77.6C157 75.3 161.8 71.8 164.7 69.7L169.8 66L181.6 82.2C188.1 91.2 196.9 103.3 201.2 109.2L208.9 119.8L198.5 127.4C192.7 131.6 187.8 135 187.5 135C187.2 135 184.7 131.8 181.8 127.8Z" fill="#11111F"/>
<path d="M573.5 127.5C568 123.4 563.6 119.8 563.6 119.5C563.7 119.1 572.4 106.9 583 92.4L602.2 66L605.3 68.2C614.8 74.8 623 81.2 623 81.8C623 83 585.6 134.3 584.5 134.6C583.9 134.7 579 131.5 573.5 127.5Z" fill="#11111F"/>
<path d="M264.7 56.0999C259.4 39.6999 254.8 25.5999 254.5 24.6999C254 23.4999 256.5 22.2999 266.5 18.9999C273.4 16.6999 279.2 14.9999 279.4 15.0999C279.8 15.5999 299.2 76.1999 299.4 77.3999C299.5 78.0999 277.3 85.8999 275 85.9999C274.7 85.9999 270.1 72.5999 264.7 56.0999Z" fill="#11111F"/>
<path d="M484 81.9999C477.7 79.9999 472.6 77.8999 472.6 77.3999C472.8 76.1999 492.2 15.5999 492.6 15.0999C492.8 14.9999 498.6 16.6999 505.5 18.9999C515.2 22.1999 518 23.5999 517.6 24.6999C517.3 25.4999 512.6 39.5999 507.3 56.0999C502 72.4999 497.1 85.9999 496.5 85.8999C496 85.7999 490.3 84.0999 484 81.9999Z" fill="#11111F"/>
<path d="M373 33.5V0H386H399V33.5V67H386H373V33.5Z" fill="#11111F"/>
</svg>
